<svg width="600" height="400" viewBox="0 0 600 400" fill="none" xmlns="http://www.w3.org/2000/svg">
<rect x="0.5" y="0.5" width="599" height="399" fill="#E3E3E3" stroke="#C3C3C3"/>
<path d="M0 0H600V70H0V0Z" fill="#2D2D2D"/>
<rect x="66" y="104" width="259" height="258" rx="5" fill="#F3F3F3"/>
<rect x="361" y="104" width="173" height="80" rx="5" fill="#F3F3F3"/>
<rect x="361" y="200" width="173" height="162" rx="5" fill="#F3F3F3"/>
<path d="M91 126C91 123.239 93.2386 121 96 121H295C297.761 121 300 123.239 300 126V131C300 133.761 297.761 136 295 136H96C93.2386 136 91 133.761 91 131V126Z" fill="#E3E3E3"/>
<path d="M91 264C91 261.239 93.2386 259 96 259H183C185.761 259 188 261.239 188 264V269C188 271.761 185.761 274 183 274H96C93.2386 274 91 271.761 91 269V264Z" fill="#E3E3E3"/>
<path d="M502 35C502 32.2386 504.239 30 507 30H532C534.761 30 537 32.2386 537 35C537 37.7614 534.761 40 532 40H507C504.239 40 502 37.7614 502 35Z" fill="#E3E3E3"/>
<path d="M413 35C413 32.2386 415.239 30 418 30H443C445.761 30 448 32.2386 448 35C448 37.7614 445.761 40 443 40H418C415.239 40 413 37.7614 413 35Z" fill="#E3E3E3"/>
<path d="M366 35C366 32.2386 368.239 30 371 30H396C398.761 30 401 32.2386 401 35C401 37.7614 398.761 40 396 40H371C368.239 40 366 37.7614 366 35Z" fill="#E3E3E3"/>
<path d="M319 35C319 32.2386 321.239 30 324 30H349C351.761 30 354 32.2386 354 35C354 37.7614 351.761 40 349 40H324C321.239 40 319 37.7614 319 35Z" fill="#E3E3E3"/>
<path d="M272 35C272 32.2386 274.239 30 277 30H302C304.761 30 307 32.2386 307 35C307 37.7614 304.761 40 302 40H277C274.239 40 272 37.7614 272 35Z" fill="#E3E3E3"/>
<path d="M272 35C272 32.2386 274.239 30 277 30H302C304.761 30 307 32.2386 307 35C307 37.7614 304.761 40 302 40H277C274.239 40 272 37.7614 272 35Z" fill="#E3E3E3"/>
<path d="M61 22C61 20.8954 61.8954 20 63 20H119C120.105 20 121 20.8954 121 22V48C121 49.1046 120.105 50 119 50H63C61.8954 50 61 49.1046 61 48V22Z" fill="#E3E3E3"/>
<path d="M91 284C91 281.239 93.2386 279 96 279H237C239.761 279 242 281.239 242 284V289C242 291.761 239.761 294 237 294H96C93.2386 294 91 291.761 91 289V284Z" fill="#E3E3E3"/>
<path d="M91 304C91 301.239 93.2386 299 96 299H211C213.761 299 216 301.239 216 304V309C216 311.761 213.761 314 211 314H96C93.2386 314 91 311.761 91 309V304Z" fill="#E3E3E3"/>
<path d="M91 324C91 321.239 93.2386 319 96 319H274C276.761 319 279 321.239 279 324V329C279 331.761 276.761 334 274 334H96C93.2386 334 91 331.761 91 329V324Z" fill="#E3E3E3"/>
<path d="M462 242C462 239.239 464.239 237 467 237H497C499.761 237 502 239.239 502 242C502 244.761 499.761 247 497 247H467C464.239 247 462 244.761 462 242Z" fill="#E3E3E3"/>
<path d="M462 224C462 221.239 464.239 219 467 219H507C509.761 219 512 221.239 512 224C512 226.761 509.761 229 507 229H467C464.239 229 462 226.761 462 224Z" fill="#E3E3E3"/>
<path d="M384 220C384 217.239 386.239 215 389 215H449C451.761 215 454 217.239 454 220V245C454 247.761 451.761 250 449 250H389C386.239 250 384 247.761 384 245V220Z" fill="#C3C3C3"/>
<path d="M462 290C462 287.239 464.239 285 467 285H497C499.761 285 502 287.239 502 290C502 292.761 499.761 295 497 295H467C464.239 295 462 292.761 462 290Z" fill="#E3E3E3"/>
<path d="M462 272C462 269.239 464.239 267 467 267H507C509.761 267 512 269.239 512 272C512 274.761 509.761 277 507 277H467C464.239 277 462 274.761 462 272Z" fill="#E3E3E3"/>
<path d="M384 268C384 265.239 386.239 263 389 263H449C451.761 263 454 265.239 454 268V293C454 295.761 451.761 298 449 298H389C386.239 298 384 295.761 384 293V268Z" fill="#C3C3C3"/>
<path d="M462 336C462 333.239 464.239 331 467 331H497C499.761 331 502 333.239 502 336C502 338.761 499.761 341 497 341H467C464.239 341 462 338.761 462 336Z" fill="#E3E3E3"/>
<path d="M462 318C462 315.239 464.239 313 467 313H507C509.761 313 512 315.239 512 318C512 320.761 509.761 323 507 323H467C464.239 323 462 320.761 462 318Z" fill="#E3E3E3"/>
<path d="M384 314C384 311.239 386.239 309 389 309H449C451.761 309 454 311.239 454 314V339C454 341.761 451.761 344 449 344H389C386.239 344 384 341.761 384 339V314Z" fill="#C3C3C3"/>
<rect x="91" y="155" width="209" height="78" rx="5" fill="#C3C3C3"/>
</svg>
