<svg width="600" height="400" viewBox="0 0 600 400" fill="none" xmlns="http://www.w3.org/2000/svg">
<rect x="0.5" y="0.5" width="599" height="399" fill="#E3E3E3" stroke="#C3C3C3"/>
<path d="M0 0H600V70H0V0Z" fill="#2D2D2D"/>
<path d="M502 35C502 32.2386 504.239 30 507 30H532C534.761 30 537 32.2386 537 35C537 37.7614 534.761 40 532 40H507C504.239 40 502 37.7614 502 35Z" fill="#E3E3E3"/>
<path d="M413 35C413 32.2386 415.239 30 418 30H443C445.761 30 448 32.2386 448 35C448 37.7614 445.761 40 443 40H418C415.239 40 413 37.7614 413 35Z" fill="#E3E3E3"/>
<path d="M366 35C366 32.2386 368.239 30 371 30H396C398.761 30 401 32.2386 401 35C401 37.7614 398.761 40 396 40H371C368.239 40 366 37.7614 366 35Z" fill="#E3E3E3"/>
<path d="M319 35C319 32.2386 321.239 30 324 30H349C351.761 30 354 32.2386 354 35C354 37.7614 351.761 40 349 40H324C321.239 40 319 37.7614 319 35Z" fill="#E3E3E3"/>
<path d="M272 35C272 32.2386 274.239 30 277 30H302C304.761 30 307 32.2386 307 35C307 37.7614 304.761 40 302 40H277C274.239 40 272 37.7614 272 35Z" fill="#E3E3E3"/>
<path d="M61 22C61 20.8954 61.8954 20 63 20H119C120.105 20 121 20.8954 121 22V48C121 49.1046 120.105 50 119 50H63C61.8954 50 61 49.1046 61 48V22Z" fill="#E3E3E3"/>
<rect x="146" y="124" width="309" height="275" rx="5" fill="#F3F3F3"/>
<path d="M166 170C166 167.239 168.239 165 171 165H258C260.761 165 263 167.239 263 170V175C263 177.761 260.761 180 258 180H171C168.239 180 166 177.761 166 175V170Z" fill="#E3E3E3"/>
<path d="M166 196C166 193.239 168.239 191 171 191H361C363.761 191 366 193.239 366 196V201C366 203.761 363.761 206 361 206H171C168.239 206 166 203.761 166 201V196Z" fill="#E3E3E3"/>
<path d="M166 222C166 219.239 168.239 217 171 217H285C287.761 217 290 219.239 290 222V227C290 229.761 287.761 232 285 232H171C168.239 232 166 229.761 166 227V222Z" fill="#E3E3E3"/>
<path d="M165 248C165 245.239 167.239 243 170 243H408C410.761 243 413 245.239 413 248V253C413 255.761 410.761 258 408 258H170C167.239 258 165 255.761 165 253V248Z" fill="#E3E3E3"/>
<path d="M165 274C165 271.239 167.239 269 170 269H320C322.761 269 325 271.239 325 274V279C325 281.761 322.761 284 320 284H170C167.239 284 165 281.761 165 279V274Z" fill="#E3E3E3"/>
<path d="M278 165L278 180" stroke="#4A4A4A"/>
<path d="M303 217L303 232" stroke="#4A4A4A"/>
<path d="M427 243L427 258" stroke="#4A4A4A"/>
<rect x="203" y="313" width="198" height="86" rx="5" fill="#C3C3C3"/>
</svg>
